<?xml version="1.0" standalone="no"?>
<!DOCTYPE svg PUBLIC "-//W3C//DTD SVG 20010904//EN"
 "http://www.w3.org/TR/2001/REC-SVG-20010904/DTD/svg10.dtd">
<svg version="1.0" xmlns="http://www.w3.org/2000/svg"
 width="64" height="45" viewBox="0 0 2048.000000 1450.000000"
 preserveAspectRatio="xMidYMid meet">

<g transform="translate(0.000000,1450.000000) scale(0.100000,-0.100000)"
fill="currentColor" stroke="none">
<path d="M7015 14256 c-42 -18 -83 -69 -91 -112 -14 -78 -1 -125 67 -230 111
-169 174 -283 243 -438 248 -554 488 -1230 711 -2006 30 -102 84 -288 120
-415 37 -126 82 -284 100 -350 18 -66 51 -190 74 -275 214 -787 209 -769 346
-1345 91 -385 115 -484 160 -670 25 -104 55 -226 67 -270 11 -44 33 -132 48
-195 40 -166 76 -309 109 -440 17 -63 41 -160 55 -215 14 -55 38 -150 54 -211
25 -92 28 -116 18 -135 -11 -22 -82 -69 -373 -243 -144 -86 -230 -138 -373
-226 -69 -42 -161 -98 -205 -125 -44 -27 -140 -85 -212 -129 -350 -214 -403
-246 -478 -291 -44 -26 -120 -73 -170 -105 -49 -31 -180 -110 -290 -175 -110
-65 -243 -144 -295 -175 -52 -31 -162 -97 -245 -145 -82 -49 -208 -123 -280
-165 -303 -180 -324 -192 -342 -185 -13 4 -41 73 -102 258 -46 139 -101 302
-122 362 -21 61 -68 205 -105 320 -36 116 -85 271 -109 345 -24 74 -75 239
-115 365 -39 127 -85 275 -102 329 -17 55 -50 165 -73 245 -24 81 -66 223 -94
316 -28 94 -62 213 -77 265 -14 52 -45 165 -69 250 -71 256 -133 480 -155 565
-11 44 -36 134 -54 200 -19 66 -60 212 -91 325 -138 502 -171 617 -230 805
-35 110 -90 286 -123 390 -33 105 -97 307 -142 450 -45 143 -114 359 -152 480
-38 121 -137 425 -219 675 -142 430 -177 535 -304 910 -208 615 -315 954 -315
1000 0 134 -49 225 -149 278 -47 24 -75 32 -114 32 -103 0 -198 -70 -232 -169
-33 -98 -11 -187 69 -280 53 -61 115 -186 206 -416 18 -44 58 -145 90 -225 68
-169 131 -333 195 -500 7 -19 20 -53 28 -75 9 -22 29 -78 45 -125 17 -47 65
-182 107 -300 197 -551 811 -2411 860 -2610 9 -36 34 -123 55 -195 21 -71 68
-238 105 -370 37 -132 84 -301 105 -375 21 -74 64 -227 95 -340 31 -113 75
-268 97 -345 22 -77 48 -171 58 -210 10 -38 36 -131 58 -205 23 -74 66 -219
96 -323 131 -440 171 -572 226 -742 32 -99 86 -268 120 -375 34 -107 78 -240
97 -295 19 -55 50 -145 68 -200 18 -55 74 -217 124 -360 56 -159 90 -269 86
-282 -3 -15 -37 -39 -108 -79 -56 -31 -113 -65 -127 -74 -14 -10 -95 -58 -180
-107 -85 -50 -234 -136 -330 -193 -257 -151 -330 -194 -380 -222 -25 -14 -105
-61 -177 -104 -73 -44 -199 -118 -280 -165 -140 -82 -335 -196 -713 -419 -338
-199 -397 -234 -945 -570 -244 -149 -653 -419 -833 -549 -73 -53 -143 -103
-155 -111 -86 -58 -285 -217 -497 -399 -488 -419 -694 -640 -761 -816 -27 -69
-29 -192 -5 -248 20 -47 90 -122 133 -143 74 -35 432 -30 788 12 184 21 563
87 810 140 188 41 878 211 1067 264 104 29 479 115 633 144 239 47 379 59 670
59 365 0 563 -27 845 -118 297 -96 527 -213 887 -451 476 -314 563 -353 771
-341 87 5 114 11 172 38 84 39 113 67 145 147 21 51 25 78 25 154 -1 613 -296
1742 -893 3418 -30 85 -77 218 -105 295 -27 77 -61 169 -76 204 -26 66 -31 97
-18 117 4 6 39 29 77 51 78 44 285 168 415 248 47 29 135 80 195 115 61 34
117 68 125 75 8 7 51 33 95 57 82 46 308 180 405 241 30 19 105 65 165 102 61
37 169 103 242 148 73 45 199 123 280 173 81 50 209 128 283 174 74 46 169
104 210 128 41 25 111 68 155 97 44 28 121 75 170 104 50 29 151 90 225 136
177 111 178 111 198 99 17 -11 17 -10 67 -199 96 -366 289 -1004 381 -1260 14
-38 45 -126 69 -195 198 -571 398 -1027 707 -1615 153 -291 188 -355 250 -458
32 -54 58 -100 58 -104 0 -5 132 -231 260 -443 31 -52 102 -171 157 -265 55
-93 129 -217 163 -275 35 -58 79 -134 98 -170 59 -111 107 -150 184 -150 65 0
116 34 151 100 27 51 29 61 23 131 -6 91 -45 274 -90 429 -19 63 -44 151 -55
195 -12 44 -41 145 -65 225 -24 80 -74 253 -111 385 -37 132 -85 299 -106 370
-21 72 -45 159 -54 195 -9 36 -32 117 -50 180 -175 600 -357 1326 -414 1660
-15 86 -51 381 -51 416 0 2 7 4 15 4 24 0 210 -386 304 -631 22 -57 72 -185
111 -284 39 -99 100 -261 135 -360 99 -282 249 -690 295 -805 23 -57 60 -154
82 -215 51 -138 100 -251 188 -430 157 -319 313 -489 488 -531 172 -41 390 24
538 159 80 73 237 267 333 410 135 204 350 579 451 790 76 160 211 494 293
727 70 196 67 190 81 190 7 0 23 -26 36 -57 43 -106 132 -277 189 -362 208
-313 423 -404 881 -372 238 17 386 48 590 123 142 52 360 161 500 249 208 131
359 197 563 246 79 20 374 24 662 11 261 -12 440 14 620 92 152 66 472 237
580 310 22 15 92 62 155 103 96 63 257 187 477 366 21 17 95 77 164 134 69 56
187 152 261 214 257 212 342 266 455 293 57 13 123 55 148 94 22 34 21 109 -2
149 -25 43 -94 77 -157 77 -67 0 -166 -32 -258 -82 -82 -46 -271 -192 -583
-451 -321 -268 -712 -554 -885 -649 -113 -62 -321 -164 -432 -211 -184 -79
-203 -82 -443 -78 -463 10 -706 6 -785 -12 -265 -58 -398 -116 -715 -309 -258
-158 -424 -231 -641 -283 -197 -47 -507 -57 -634 -19 -95 28 -151 75 -230 193
-107 160 -184 374 -310 864 -28 108 -66 169 -124 196 -138 67 -255 -38 -256
-229 0 -139 -205 -762 -401 -1220 -182 -425 -641 -1133 -825 -1272 -91 -70
-218 -92 -285 -51 -67 42 -207 256 -289 443 -100 228 -257 645 -395 1050 -46
135 -104 304 -130 375 -25 72 -53 150 -62 175 -111 324 -293 765 -414 1001
-126 245 -209 330 -354 359 -46 10 -70 10 -101 1 -47 -13 -113 -72 -137 -124
-49 -103 -18 -510 74 -962 60 -296 242 -1036 384 -1565 49 -183 122 -458 162
-610 8 -30 43 -165 79 -300 63 -241 72 -290 56 -290 -5 0 -64 93 -132 208
-267 448 -323 545 -411 712 -30 58 -96 182 -146 275 -80 150 -283 565 -283
578 0 3 -16 38 -35 79 -120 258 -359 907 -499 1358 -90 289 -190 631 -217 735
-9 39 -36 142 -59 230 -57 215 -57 205 13 246 28 17 124 75 212 130 88 54 203
124 255 154 52 31 156 94 230 140 74 46 171 105 215 131 94 56 276 166 395
239 47 29 101 61 121 72 20 10 74 43 120 71 93 59 279 170 349 210 25 14 91
54 147 89 56 34 104 63 107 63 3 0 52 28 108 63 57 35 132 80 168 101 36 20
72 41 80 46 19 12 216 126 350 202 58 33 112 66 120 73 8 7 51 32 95 55 44 24
92 51 106 61 28 19 193 109 379 207 58 30 110 58 115 62 6 4 64 36 130 70 66
34 125 66 130 70 36 26 1000 514 1107 560 29 12 108 49 175 81 67 33 125 59
128 59 3 0 58 25 123 56 64 31 133 62 153 69 20 7 101 40 180 73 129 54 261
106 416 163 29 10 82 23 118 28 89 13 144 45 173 101 12 24 22 58 22 75 -1 51
-35 111 -80 141 -50 33 -82 35 -305 12 -231 -24 -344 -28 -770 -30 -410 -1
-462 3 -775 67 -260 53 -814 241 -1255 425 -82 34 -256 105 -385 157 -129 52
-352 142 -495 200 -143 58 -316 128 -385 155 -69 27 -179 71 -245 98 -66 27
-241 97 -390 156 -765 300 -1052 417 -1280 519 -77 35 -187 84 -243 109 -254
114 -493 241 -827 441 -450 269 -695 450 -945 697 -107 105 -152 170 -215 307
-89 193 -173 319 -235 351 -45 23 -120 26 -165 6z m939 -1288 c254 -172 514
-340 646 -419 121 -71 421 -226 589 -304 64 -29 159 -73 211 -98 120 -57 473
-211 554 -241 33 -13 115 -47 181 -76 66 -28 154 -65 196 -80 42 -16 153 -60
245 -98 93 -38 210 -85 259 -105 163 -65 528 -213 650 -264 66 -28 237 -99
380 -158 143 -59 339 -140 435 -180 278 -116 738 -297 950 -376 643 -236 1031
-319 1509 -319 161 0 210 -7 180 -26 -16 -10 -201 -97 -339 -159 -167 -75
-482 -234 -865 -434 -66 -35 -172 -90 -235 -123 -63 -33 -119 -64 -125 -68 -5
-4 -59 -33 -120 -65 -60 -31 -114 -60 -120 -65 -5 -4 -44 -24 -85 -45 -41 -21
-104 -55 -140 -75 -36 -21 -121 -68 -190 -105 -69 -37 -181 -101 -250 -140
-272 -157 -449 -260 -525 -305 -44 -26 -136 -80 -205 -120 -69 -40 -159 -93
-200 -118 -41 -24 -122 -73 -180 -107 -144 -85 -249 -149 -350 -210 -47 -29
-112 -69 -145 -88 -257 -153 -462 -276 -936 -562 -525 -316 -557 -335 -574
-329 -8 4 -19 22 -24 43 -19 70 -91 359 -166 666 -147 599 -194 799 -285 1195
-127 552 -164 701 -333 1360 -124 481 -150 575 -234 865 -30 105 -77 267 -103
360 -167 580 -208 715 -353 1148 -65 191 -117 349 -117 352 0 14 35 -6 214
-127z m-2244 -8470 c8 -24 29 -83 48 -133 48 -126 160 -444 311 -875 81 -234
252 -764 306 -950 205 -701 265 -953 331 -1375 20 -131 28 -217 28 -316 0
-169 -2 -173 -89 -167 -85 7 -163 48 -465 246 -63 41 -137 89 -165 107 -27 17
-68 43 -90 57 -130 82 -442 229 -651 308 -312 117 -604 169 -1042 186 -239 9
-477 -18 -849 -96 -107 -23 -713 -176 -888 -225 -208 -58 -721 -181 -955 -230
-293 -61 -645 -104 -907 -112 -196 -6 -203 -5 -203 13 0 54 349 421 625 658
283 242 516 423 875 679 197 139 274 191 587 390 76 48 192 122 258 164 180
114 816 500 1020 618 50 28 151 88 225 133 181 110 376 227 540 324 74 44 196
116 270 160 74 45 198 118 275 163 77 45 167 99 200 119 33 21 127 78 209 126
166 99 173 100 196 28z"/>
</g>
</svg>
